<?xml version="1.0" encoding="UTF-8" standalone="yes"?><svg xmlns="http://www.w3.org/2000/svg" xmlns:xlink="http://www.w3.org/1999/xlink" height="310px" style="width:328px;height:310px;" version="1.1" viewBox="0 0 328 310" width="328px"><defs><filter height="300%" id="f1" width="300%" x="-1" y="-1"><feGaussianBlur result="blurOut" stdDeviation="2.0"/><feColorMatrix in="blurOut" result="blurOut2" type="matrix" values="0 0 0 0 0 0 0 0 0 0 0 0 0 0 0 0 0 0 .4 0"/><feOffset dx="4.0" dy="4.0" in="blurOut2" result="blurOut3"/><feBlend in="SourceGraphic" in2="blurOut3" mode="normal"/></filter></defs><g><rect fill="#FFFFFF" filter="url(#f1)" height="279" style="stroke: #000000; stroke-width: 2.0;" width="126" x="117" y="24"/><text fill="#000000" font-family="sans-serif" font-size="14" font-weight="bold" lengthAdjust="spacingAndGlyphs" textLength="64" x="148" y="39.5352">checkout</text><ellipse cx="179.8406" cy="173.159" fill="#FEFECE" filter="url(#f1)" rx="46.8406" ry="14.659" style="stroke: #A80036; stroke-width: 1.5;"/><text fill="#000000" font-family="sans-serif" font-size="14" lengthAdjust="spacingAndGlyphs" textLength="62" x="148.8406" y="177.9031">checkout</text><ellipse cx="180.2193" cy="74.159" fill="#FEFECE" filter="url(#f1)" rx="44.7193" ry="14.659" style="stroke: #A80036; stroke-width: 1.5;"/><text fill="#000000" font-family="sans-serif" font-size="14" lengthAdjust="spacingAndGlyphs" textLength="59" x="150.7193" y="78.9031">payment</text><ellipse cx="180.2132" cy="272.159" fill="#FEFECE" filter="url(#f1)" rx="24.2132" ry="14.659" style="stroke: #A80036; stroke-width: 1.5;"/><text fill="#000000" font-family="sans-serif" font-size="14" lengthAdjust="spacingAndGlyphs" textLength="30" x="165.2132" y="276.9031">help</text><ellipse cx="38" cy="141.5" fill="#FEFECE" filter="url(#f1)" rx="8" ry="8" style="stroke: #A80036; stroke-width: 2.0;"/><path d="M38,149.5 L38,176.5 M25,157.5 L51,157.5 M38,176.5 L25,191.5 M38,176.5 L51,191.5 " fill="#FEFECE" filter="url(#f1)" style="stroke: #A80036; stroke-width: 2.0;"/><text fill="#000000" font-family="sans-serif" font-size="14" lengthAdjust="spacingAndGlyphs" textLength="64" x="6" y="212.0352">customer</text><ellipse cx="306.5" cy="141.5" fill="#FEFECE" filter="url(#f1)" rx="8" ry="8" style="stroke: #A80036; stroke-width: 2.0;"/><path d="M306.5,149.5 L306.5,176.5 M293.5,157.5 L319.5,157.5 M306.5,176.5 L293.5,191.5 M306.5,176.5 L319.5,191.5 " fill="#FEFECE" filter="url(#f1)" style="stroke: #A80036; stroke-width: 2.0;"/><text fill="#000000" font-family="sans-serif" font-size="14" lengthAdjust="spacingAndGlyphs" textLength="33" x="290" y="212.0352">clerk</text><path d="M70.0705,173 C88.5181,173 112.255,173 132.859,173 " fill="none" style="stroke: #A80036; stroke-width: 1.0;"/><path d="M180,158.392 C180,141.283 180,112.859 180,93.783 " fill="none" style="stroke: #A80036; stroke-width: 1.0; stroke-dasharray: 7.0,7.0;"/><polygon fill="#A80036" points="180,88.668,176,97.668,180,93.668,184,97.668,180,88.668" style="stroke: #A80036; stroke-width: 1.0;"/><text fill="#000000" font-family="sans-serif" font-size="13" lengthAdjust="spacingAndGlyphs" textLength="46" x="145.5" y="128.5684">include</text><path d="M180,257.3922 C180,240.2832 180,211.859 180,192.783 " fill="none" style="stroke: #A80036; stroke-width: 1.0; stroke-dasharray: 7.0,7.0;"/><polygon fill="#A80036" points="180,187.668,176,196.668,180,192.668,184,196.668,180,187.668" style="stroke: #A80036; stroke-width: 1.0;"/><text fill="#000000" font-family="sans-serif" font-size="13" lengthAdjust="spacingAndGlyphs" textLength="50" x="143.5" y="227.5684">extends</text><path d="M227.005,173 C249.033,173 273.978,173 289.719,173 " fill="none" style="stroke: #A80036; stroke-width: 1.0;"/></g></svg>