<?xml version="1.0" encoding="UTF-8" standalone="yes"?><svg xmlns="http://www.w3.org/2000/svg" xmlns:xlink="http://www.w3.org/1999/xlink" height="307px" style="width:337px;height:307px;" version="1.1" viewBox="0 0 337 307" width="337px"><defs><filter height="300%" id="f1" width="300%" x="-1" y="-1"><feGaussianBlur result="blurOut" stdDeviation="2.0"/><feColorMatrix in="blurOut" result="blurOut2" type="matrix" values="0 0 0 0 0 0 0 0 0 0 0 0 0 0 0 0 0 0 .4 0"/><feOffset dx="4.0" dy="4.0" in="blurOut2" result="blurOut3"/><feBlend in="SourceGraphic" in2="blurOut3" mode="normal"/></filter></defs><g><rect fill="#FFFFFF" filter="url(#f1)" height="276" style="stroke: #000000; stroke-width: 2.0;" width="130" x="120" y="24"/><text fill="#000000" font-family="sans-serif" font-size="14" font-weight="bold" lengthAdjust="spacingAndGlyphs" textLength="73" x="148.5" y="38.9951">checkout</text><ellipse cx="184.9619" cy="172.0236" fill="#FEFECE" filter="url(#f1)" rx="48.9619" ry="14.5236" style="stroke: #A80036; stroke-width: 1.5;"/><text fill="#000000" font-family="sans-serif" font-size="14" lengthAdjust="spacingAndGlyphs" textLength="65" x="152.4619" y="176.6721">checkout</text><ellipse cx="185.4264" cy="74.0236" fill="#FEFECE" filter="url(#f1)" rx="45.4264" ry="14.5236" style="stroke: #A80036; stroke-width: 1.5;"/><text fill="#000000" font-family="sans-serif" font-size="14" lengthAdjust="spacingAndGlyphs" textLength="60" x="155.4264" y="78.6721">payment</text><ellipse cx="185.2132" cy="270.0236" fill="#FEFECE" filter="url(#f1)" rx="24.2132" ry="14.5236" style="stroke: #A80036; stroke-width: 1.5;"/><text fill="#000000" font-family="sans-serif" font-size="14" lengthAdjust="spacingAndGlyphs" textLength="30" x="170.2132" y="274.6721">help</text><ellipse cx="39" cy="140.5" fill="#FEFECE" filter="url(#f1)" rx="8" ry="8" style="stroke: #A80036; stroke-width: 2.0;"/><path d="M39,148.5 L39,175.5 M26,156.5 L52,156.5 M39,175.5 L26,190.5 M39,175.5 L52,190.5 " fill="#FEFECE" filter="url(#f1)" style="stroke: #A80036; stroke-width: 2.0;"/><text fill="#000000" font-family="sans-serif" font-size="14" lengthAdjust="spacingAndGlyphs" textLength="66" x="6" y="210.4951">customer</text><ellipse cx="315.5" cy="140.5" fill="#FEFECE" filter="url(#f1)" rx="8" ry="8" style="stroke: #A80036; stroke-width: 2.0;"/><path d="M315.5,148.5 L315.5,175.5 M302.5,156.5 L328.5,156.5 M315.5,175.5 L302.5,190.5 M315.5,175.5 L328.5,190.5 " fill="#FEFECE" filter="url(#f1)" style="stroke: #A80036; stroke-width: 2.0;"/><text fill="#000000" font-family="sans-serif" font-size="14" lengthAdjust="spacingAndGlyphs" textLength="33" x="299" y="210.4951">clerk</text><path d="M72.1297,172 C90.9755,172 114.935,172 135.927,172 " fill="none" style="stroke: #A80036; stroke-width: 1.0;"/><path d="M185,93.93 C185,112.719 185,140.44 185,157.297 " fill="none" style="stroke: #A80036; stroke-width: 1.0; stroke-dasharray: 7.0,7.0;"/><polygon fill="#A80036" points="185,88.884,181,97.884,185,93.884,189,97.884,185,88.884" style="stroke: #A80036; stroke-width: 1.0;"/><text fill="#000000" font-family="sans-serif" font-size="13" lengthAdjust="spacingAndGlyphs" textLength="45" x="186" y="127.0669">include</text><path d="M185,191.93 C185,210.719 185,238.4397 185,255.2969 " fill="none" style="stroke: #A80036; stroke-width: 1.0; stroke-dasharray: 7.0,7.0;"/><polygon fill="#A80036" points="185,186.884,181,195.884,185,191.884,189,195.884,185,186.884" style="stroke: #A80036; stroke-width: 1.0;"/><text fill="#000000" font-family="sans-serif" font-size="13" lengthAdjust="spacingAndGlyphs" textLength="51" x="186" y="225.0669">extends</text><path d="M234.147,172 C256.725,172 282.019,172 298.207,172 " fill="none" style="stroke: #A80036; stroke-width: 1.0;"/></g></svg>