<?xml version="1.0" encoding="UTF-8" standalone="yes"?><svg xmlns="http://www.w3.org/2000/svg" xmlns:xlink="http://www.w3.org/1999/xlink" height="103px" style="width:301px;height:103px;" version="1.1" viewBox="0 0 301 103" width="301px"><defs><filter height="300%" id="f1" width="300%" x="-1" y="-1"><feGaussianBlur result="blurOut" stdDeviation="2.0"/><feColorMatrix in="blurOut" result="blurOut2" type="matrix" values="0 0 0 0 0 0 0 0 0 0 0 0 0 0 0 0 0 0 .4 0"/><feOffset dx="4.0" dy="4.0" in="blurOut2" result="blurOut3"/><feBlend in="SourceGraphic" in2="blurOut3" mode="normal"/></filter></defs><g><rect fill="#FEFECE" filter="url(#f1)" height="86.8652" style="stroke: #A80036; stroke-width: 1.5;" width="129" x="6" y="8"/><ellipse cx="48.9" cy="24" fill="#ADD1B2" rx="11" ry="11" style="stroke: #A80036; stroke-width: 1.0;"/><path d="M51.8731,29.6431 Q51.2921,29.9419 50.6529,30.0913 Q50.0138,30.2407 49.3082,30.2407 Q46.8014,30.2407 45.4815,28.5889 Q44.1617,26.937 44.1617,23.8159 Q44.1617,20.6865 45.4815,19.0347 Q46.8014,17.3828 49.3082,17.3828 Q50.0138,17.3828 50.6612,17.5322 Q51.3087,17.6816 51.8731,17.9805 L51.8731,20.7031 Q51.2423,20.1221 50.6488,19.8523 Q50.0553,19.5825 49.4244,19.5825 Q48.0797,19.5825 47.3949,20.6492 Q46.7101,21.7158 46.7101,23.8159 Q46.7101,25.9077 47.3949,26.9744 Q48.0797,28.041 49.4244,28.041 Q50.0553,28.041 50.6488,27.7712 Q51.2423,27.5015 51.8731,26.9204 Z "/><text fill="#000000" font-family="sans-serif" font-size="12" lengthAdjust="spacingAndGlyphs" textLength="35" x="69.1" y="28.5352">Player</text><line style="stroke: #A80036; stroke-width: 1.5;" x1="7" x2="134" y1="40" y2="40"/><rect fill="none" height="6" style="stroke: #C82930; stroke-width: 1.0;" width="6" x="14" y="48.9775"/><text fill="#000000" font-family="sans-serif" font-size="11" lengthAdjust="spacingAndGlyphs" textLength="34" x="26" y="54.6348">xp: Int</text><rect fill="none" height="6" style="stroke: #C82930; stroke-width: 1.0;" width="6" x="14" y="61.9326"/><text fill="#000000" font-family="sans-serif" font-size="11" lengthAdjust="spacingAndGlyphs" textLength="57" x="26" y="67.5898">credits: Int</text><rect fill="none" height="6" style="stroke: #C82930; stroke-width: 1.0;" width="6" x="14" y="74.8877"/><text fill="#000000" font-family="sans-serif" font-size="11" lengthAdjust="spacingAndGlyphs" textLength="103" x="26" y="80.5449">missions: Mission[]</text><line style="stroke: #A80036; stroke-width: 1.5;" x1="7" x2="134" y1="86.8652" y2="86.8652"/><rect fill="#FEFECE" filter="url(#f1)" height="86.8652" style="stroke: #A80036; stroke-width: 1.5;" width="122" x="170.5" y="8"/><ellipse cx="207.1" cy="24" fill="#ADD1B2" rx="11" ry="11" style="stroke: #A80036; stroke-width: 1.0;"/><path d="M210.0731,29.6431 Q209.4921,29.9419 208.8529,30.0913 Q208.2138,30.2407 207.5082,30.2407 Q205.0014,30.2407 203.6815,28.5889 Q202.3617,26.937 202.3617,23.8159 Q202.3617,20.6865 203.6815,19.0347 Q205.0014,17.3828 207.5082,17.3828 Q208.2138,17.3828 208.8612,17.5322 Q209.5087,17.6816 210.0731,17.9805 L210.0731,20.7031 Q209.4423,20.1221 208.8488,19.8523 Q208.2553,19.5825 207.6244,19.5825 Q206.2797,19.5825 205.5949,20.6492 Q204.9101,21.7158 204.9101,23.8159 Q204.9101,25.9077 205.5949,26.9744 Q206.2797,28.041 207.6244,28.041 Q208.2553,28.041 208.8488,27.7712 Q209.4423,27.5015 210.0731,26.9204 Z "/><text fill="#000000" font-family="sans-serif" font-size="12" lengthAdjust="spacingAndGlyphs" textLength="42" x="225.9" y="28.5352">Mission</text><line style="stroke: #A80036; stroke-width: 1.5;" x1="171.5" x2="291.5" y1="40" y2="40"/><rect fill="none" height="6" style="stroke: #C82930; stroke-width: 1.0;" width="6" x="178.5" y="48.9775"/><text fill="#000000" font-family="sans-serif" font-size="11" lengthAdjust="spacingAndGlyphs" textLength="73" x="190.5" y="54.6348">xpReward: Int</text><rect fill="none" height="6" style="stroke: #C82930; stroke-width: 1.0;" width="6" x="178.5" y="61.9326"/><text fill="#000000" font-family="sans-serif" font-size="11" lengthAdjust="spacingAndGlyphs" textLength="96" x="190.5" y="67.5898">creditsReward: Int</text><rect fill="none" height="6" style="stroke: #C82930; stroke-width: 1.0;" width="6" x="178.5" y="74.8877"/><text fill="#000000" font-family="sans-serif" font-size="11" lengthAdjust="spacingAndGlyphs" textLength="82" x="190.5" y="80.5449">creditsCost: Int</text><line style="stroke: #A80036; stroke-width: 1.5;" x1="171.5" x2="291.5" y1="86.8652" y2="86.8652"/><path d="M135.277,51.5 C146.929,51.5 158.581,51.5 170.233,51.5 " fill="none" style="stroke: #A80036; stroke-width: 1.0;"/></g></svg>