<?xml version="1.0" encoding="UTF-8" standalone="yes"?><svg xmlns="http://www.w3.org/2000/svg" xmlns:xlink="http://www.w3.org/1999/xlink" height="90px" style="width:98px;height:90px;" version="1.1" viewBox="0 0 98 90" width="98px"><defs><filter height="300%" id="f1" width="300%" x="-1" y="-1"><feGaussianBlur result="blurOut" stdDeviation="2.0"/><feColorMatrix in="blurOut" result="blurOut2" type="matrix" values="0 0 0 0 0 0 0 0 0 0 0 0 0 0 0 0 0 0 .4 0"/><feOffset dx="4.0" dy="4.0" in="blurOut2" result="blurOut3"/><feBlend in="SourceGraphic" in2="blurOut3" mode="normal"/></filter></defs><g><rect fill="#FEFECE" filter="url(#f1)" height="73.9102" style="stroke: #A80036; stroke-width: 1.5;" width="83" x="6" y="8"/><ellipse cx="28.2" cy="24" fill="#ADD1B2" rx="11" ry="11" style="stroke: #A80036; stroke-width: 1.0;"/><path d="M31.1731,29.6431 Q30.5921,29.9419 29.9529,30.0913 Q29.3138,30.2407 28.6082,30.2407 Q26.1014,30.2407 24.7815,28.5889 Q23.4617,26.937 23.4617,23.8159 Q23.4617,20.6865 24.7815,19.0347 Q26.1014,17.3828 28.6082,17.3828 Q29.3138,17.3828 29.9612,17.5322 Q30.6087,17.6816 31.1731,17.9805 L31.1731,20.7031 Q30.5423,20.1221 29.9488,19.8523 Q29.3553,19.5825 28.7244,19.5825 Q27.3797,19.5825 26.6949,20.6492 Q26.0101,21.7158 26.0101,23.8159 Q26.0101,25.9077 26.6949,26.9744 Q27.3797,28.041 28.7244,28.041 Q29.3553,28.041 29.9488,27.7712 Q30.5423,27.5015 31.1731,26.9204 Z "/><text fill="#000000" font-family="sans-serif" font-size="12" lengthAdjust="spacingAndGlyphs" textLength="35" x="43.8" y="28.5352">Player</text><line style="stroke: #A80036; stroke-width: 1.5;" x1="7" x2="88" y1="40" y2="40"/><ellipse cx="17" cy="51.9775" fill="none" rx="3" ry="3" style="stroke: #038048; stroke-width: 1.0;"/><text fill="#000000" font-family="sans-serif" font-size="11" lengthAdjust="spacingAndGlyphs" textLength="34" x="26" y="54.6348">xp: Int</text><ellipse cx="17" cy="64.9326" fill="none" rx="3" ry="3" style="stroke: #038048; stroke-width: 1.0;"/><text fill="#000000" font-family="sans-serif" font-size="11" lengthAdjust="spacingAndGlyphs" textLength="57" x="26" y="67.5898">credits: Int</text><line style="stroke: #A80036; stroke-width: 1.5;" x1="7" x2="88" y1="73.9102" y2="73.9102"/></g></svg>