<?xml version="1.0" encoding="UTF-8" standalone="yes"?><svg xmlns="http://www.w3.org/2000/svg" xmlns:xlink="http://www.w3.org/1999/xlink" height="116px" style="width:97px;height:116px;" version="1.1" viewBox="0 0 97 116" width="97px"><defs><filter height="300%" id="f1" width="300%" x="-1" y="-1"><feGaussianBlur result="blurOut" stdDeviation="2.0"/><feColorMatrix in="blurOut" result="blurOut2" type="matrix" values="0 0 0 0 0 0 0 0 0 0 0 0 0 0 0 0 0 0 .4 0"/><feOffset dx="4.0" dy="4.0" in="blurOut2" result="blurOut3"/><feBlend in="SourceGraphic" in2="blurOut3" mode="normal"/></filter></defs><g><rect fill="#FEFECE" filter="url(#f1)" height="99.8203" style="stroke: #A80036; stroke-width: 1.5;" width="82" x="6" y="8"/><ellipse cx="23.7" cy="24" fill="#ADD1B2" rx="11" ry="11" style="stroke: #A80036; stroke-width: 1.0;"/><path d="M26.6731,29.6431 Q26.0921,29.9419 25.4529,30.0913 Q24.8138,30.2407 24.1082,30.2407 Q21.6014,30.2407 20.2815,28.5889 Q18.9617,26.937 18.9617,23.8159 Q18.9617,20.6865 20.2815,19.0347 Q21.6014,17.3828 24.1082,17.3828 Q24.8138,17.3828 25.4612,17.5322 Q26.1087,17.6816 26.6731,17.9805 L26.6731,20.7031 Q26.0423,20.1221 25.4488,19.8523 Q24.8553,19.5825 24.2244,19.5825 Q22.8797,19.5825 22.1949,20.6492 Q21.5101,21.7158 21.5101,23.8159 Q21.5101,25.9077 22.1949,26.9744 Q22.8797,28.041 24.2244,28.041 Q24.8553,28.041 25.4488,27.7712 Q26.0423,27.5015 26.6731,26.9204 Z "/><text fill="#000000" font-family="sans-serif" font-size="12" lengthAdjust="spacingAndGlyphs" textLength="44" x="38.3" y="28.5352">Dummy</text><line style="stroke: #A80036; stroke-width: 1.5;" x1="7" x2="87" y1="40" y2="40"/><rect fill="none" height="6" style="stroke: #C82930; stroke-width: 1.0;" width="6" x="14" y="48.9775"/><text fill="#000000" font-family="sans-serif" font-size="11" lengthAdjust="spacingAndGlyphs" textLength="30" x="26" y="54.6348">field1</text><polygon fill="none" points="17,59.9326,21,63.9326,17,67.9326,13,63.9326" style="stroke: #B38D22; stroke-width: 1.0;"/><text fill="#000000" font-family="sans-serif" font-size="11" lengthAdjust="spacingAndGlyphs" textLength="30" x="26" y="67.5898">field2</text><line style="stroke: #A80036; stroke-width: 1.5;" x1="7" x2="87" y1="73.9102" y2="73.9102"/><polygon fill="#4177AF" points="17,81.8877,13,87.8877,21,87.8877" style="stroke: #1963A0; stroke-width: 1.0;"/><text fill="#000000" font-family="sans-serif" font-size="11" lengthAdjust="spacingAndGlyphs" textLength="56" x="26" y="88.5449">method1()</text><ellipse cx="17" cy="98.8428" fill="#84BE84" rx="3" ry="3" style="stroke: #038048; stroke-width: 1.0;"/><text fill="#000000" font-family="sans-serif" font-size="11" lengthAdjust="spacingAndGlyphs" textLength="56" x="26" y="101.5">method2()</text></g></svg>